<svg xmlns="http://www.w3.org/2000/svg" viewBox="0 0 512 512">
  <rect width="512" height="512" rx="96" fill="#00c853"/>
  <defs>
    <clipPath id="ball">
      <circle cx="256" cy="210" r="138"/>
    </clipPath>
  </defs>
  <!-- White ball -->
  <circle cx="256" cy="210" r="138" fill="white"/>
  <!-- Black patches clipped to ball -->
  <g clip-path="url(#ball)" fill="#111">
    <polygon points="256,95 296,125 281,170 231,170 216,125"/>
    <polygon points="130,162 168,135 202,159 190,204 145,207"/>
    <polygon points="116,267 146,232 193,242 201,287 163,312"/>
    <polygon points="182,332 212,302 256,310 266,354 232,374"/>
    <polygon points="282,342 270,298 312,280 351,303 347,350"/>
    <polygon points="352,287 320,260 328,214 372,202 398,232"/>
    <polygon points="381,170 356,197 314,182 307,137 341,112"/>
  </g>
  <!-- Ball outline -->
  <circle cx="256" cy="210" r="138" fill="none" stroke="#222" stroke-width="3"/>
  <!-- 2026 label -->
  <text x="256" y="430" font-size="80" text-anchor="middle" font-family="Arial Black,Helvetica,sans-serif" fill="#ffd600" font-weight="900">2026</text>
</svg>
